<mxfile modified="2022-04-30T10:37:06.857Z" host="app.diagrams.net" agent="5.0 (Windows NT 10.0; Win64; x64) AppleWebKit/537.36 (KHTML, like Gecko) Chrome/100.0.4896.127 Safari/537.36" etag="ucbqz2fpyH8NziyTFr03" version="17.4.5" type="github">
  <diagram id="l8hXMBHkgcEJcSW0mbfh" name="Page-1">
    <mxGraphModel dx="915" dy="469" grid="1" gridSize="10" guides="1" tooltips="1" connect="1" arrows="1" fold="1" page="1" pageScale="1" pageWidth="1169" pageHeight="827" math="0" shadow="0">
      <root>
        <mxCell id="0" />
        <mxCell id="1" parent="0" />
        <mxCell id="KTYIS-nlbDNS5z_1esKd-10" value="" style="edgeStyle=orthogonalEdgeStyle;rounded=0;orthogonalLoop=1;jettySize=auto;html=1;fontSize=13;" edge="1" parent="1" source="8--HhbSZYtI3ddgJnD71-11" target="KTYIS-nlbDNS5z_1esKd-1">
          <mxGeometry relative="1" as="geometry" />
        </mxCell>
        <mxCell id="8--HhbSZYtI3ddgJnD71-11" value="Internet" style="shape=image;verticalLabelPosition=bottom;verticalAlign=top;imageAspect=0;aspect=fixed;image=data:image/svg+xml,PHN2ZyB4bWxucz0iaHR0cDovL3d3dy53My5vcmcvMjAwMC9zdmciIHZlcnNpb249IjEiIHZpZXdCb3g9IjAgMCA0OCA0OCIgZW5hYmxlLWJhY2tncm91bmQ9Im5ldyAwIDAgNDggNDgiPiYjeGE7ICAgIDxwYXRoIGZpbGw9IiM3Q0IzNDIiIGQ9Ik0yNCw0QzEzLDQsNCwxMyw0LDI0czksMjAsMjAsMjBzMjAtOSwyMC0yMFMzNSw0LDI0LDR6Ii8+JiN4YTsgICAgPHBhdGggZmlsbD0iIzAyNzdCRCIgZD0iTTQ1LDI0YzAsMTEuNy05LjUsMjEtMjEsMjFTMywzNS43LDMsMjRTMTIuMywzLDI0LDNTNDUsMTIuMyw0NSwyNHogTTIzLjgsMzMuN2MwLTAuNC0wLjItMC42LTAuNi0wLjggYy0xLjMtMC40LTIuNS0wLjQtMy42LTEuNWMtMC4yLTAuNC0wLjItMC44LTAuNC0xLjNjLTAuNC0wLjQtMS41LTAuNi0yLjEtMC44Yy0wLjgsMC0xLjcsMC0yLjcsMGMtMC40LDAtMS4xLDAtMS41LDAgYy0wLjYtMC4yLTEuMS0xLjEtMS41LTEuN2MwLTAuMiwwLTAuNi0wLjQtMC42Yy0wLjQtMC4yLTAuOCwwLjItMS4zLDBjLTAuMi0wLjItMC4yLTAuNC0wLjItMC42YzAtMC42LDAuNC0xLjMsMC44LTEuNyBjMC42LTAuNCwxLjMsMC4yLDEuOSwwLjJjMC4yLDAsMC4yLDAsMC40LDAuMmMwLjYsMC4yLDAuOCwxLDAuOCwxLjdjMCwwLjIsMCwwLjQsMCwwLjRjMCwwLjIsMC4yLDAuMiwwLjQsMC4yIGMwLjItMS4xLDAuMi0yLjEsMC40LTMuMmMwLTEuMywxLjMtMi41LDIuMy0yLjljMC40LTAuMiwwLjYsMC4yLDEuMSwwYzEuMy0wLjQsNC40LTEuNywzLjgtMy40Yy0wLjQtMS41LTEuNy0yLjktMy40LTIuNyBjLTAuNCwwLjItMC42LDAuNC0xLDAuNmMtMC42LDAuNC0xLjksMS43LTIuNSwxLjdjLTEuMS0wLjItMS4xLTEuNy0wLjgtMi4zYzAuMi0wLjgsMi4xLTMuNiwzLjQtMy4xYzAuMiwwLjIsMC42LDAuNiwwLjgsMC44IGMwLjQsMC4yLDEuMSwwLjIsMS43LDAuMmMwLjIsMCwwLjQsMCwwLjYtMC4yYzAuMi0wLjIsMC4yLTAuMiwwLjItMC40YzAtMC42LTAuNi0xLjMtMS0xLjdjLTAuNC0wLjQtMS4xLTAuOC0xLjctMS4xIGMtMi4xLTAuNi01LjUsMC4yLTcuMSwxLjdzLTIuOSw0LTMuOCw2LjFjLTAuNCwxLjMtMC44LDIuOS0xLDQuNGMtMC4yLDEtMC40LDEuOSwwLjIsMi45YzAuNiwxLjMsMS45LDIuNSwzLjIsMy40IGMwLjgsMC42LDIuNSwwLjYsMy40LDEuN2MwLjYsMC44LDAuNCwxLjksMC40LDIuOWMwLDEuMywwLjgsMi4zLDEuMywzLjRjMC4yLDAuNiwwLjQsMS41LDAuNiwyLjFjMCwwLjIsMC4yLDEuNSwwLjIsMS43IGMxLjMsMC42LDIuMywxLjMsMy44LDEuN2MwLjIsMCwxLTEuMywxLTEuNWMwLjYtMC42LDEuMS0xLjUsMS43LTEuOWMwLjQtMC4yLDAuOC0wLjQsMS4zLTAuOGMwLjQtMC40LDAuNi0xLjMsMC44LTEuOSBDMjMuOCwzNS4xLDI0LDM0LjMsMjMuOCwzMy43eiBNMjQuMiwxNC4zYzAuMiwwLDAuNC0wLjIsMC44LTAuNGMwLjYtMC40LDEuMy0xLjEsMS45LTEuNWMwLjYtMC40LDEuMy0xLjEsMS43LTEuNSBjMC42LTAuNCwxLjEtMS4zLDEuMy0xLjljMC4yLTAuNCwwLjgtMS4zLDAuNi0xLjljLTAuMi0wLjQtMS4zLTAuNi0xLjctMC44Yy0xLjctMC40LTMuMS0wLjYtNC44LTAuNmMtMC42LDAtMS41LDAuMi0xLjcsMC44IGMtMC4yLDEuMSwwLjYsMC44LDEuNSwxLjFjMCwwLDAuMiwxLjcsMC4yLDEuOWMwLjIsMS0wLjQsMS43LTAuNCwyLjdjMCwwLjYsMCwxLjcsMC40LDIuMUwyNC4yLDE0LjN6IE00MS44LDI5IGMwLjItMC40LDAuMi0xLjEsMC40LTEuNWMwLjItMSwwLjItMi4xLDAuMi0zLjFjMC0yLjEtMC4yLTQuMi0wLjgtNi4xYy0wLjQtMC42LTAuNi0xLjMtMC44LTEuOWMtMC40LTEuMS0xLTIuMS0xLjktMi45IGMtMC44LTEuMS0xLjktNC0zLjgtMy4xYy0wLjYsMC4yLTEsMS0xLjUsMS41Yy0wLjQsMC42LTAuOCwxLjMtMS4zLDEuOWMtMC4yLDAuMi0wLjQsMC42LTAuMiwwLjhjMCwwLjIsMC4yLDAuMiwwLjQsMC4yIGMwLjQsMC4yLDAuNiwwLjIsMSwwLjRjMC4yLDAsMC40LDAuMiwwLjIsMC40YzAsMCwwLDAuMi0wLjIsMC4yYy0xLDEuMS0yLjEsMS45LTMuMSwyLjljLTAuMiwwLjItMC40LDAuNi0wLjQsMC44IGMwLDAuMiwwLjIsMC4yLDAuMiwwLjRjMCwwLjItMC4yLDAuMi0wLjQsMC40Yy0wLjQsMC4yLTAuOCwwLjQtMS4xLDAuNmMtMC4yLDAuNCwwLDEuMS0wLjIsMS41Yy0wLjIsMS4xLTAuOCwxLjktMS4zLDIuOSBjLTAuNCwwLjYtMC42LDEuMy0xLDEuOWMwLDAuOC0wLjIsMS41LDAuMiwyLjFjMSwxLjUsMi45LDAuNiw0LjQsMS4zYzAuNCwwLjIsMC44LDAuMiwxLjEsMC42YzAuNiwwLjYsMC42LDEuNywwLjgsMi4zIGMwLjIsMC44LDAuNCwxLjcsMC44LDIuNWMwLjIsMSwwLjYsMi4xLDAuOCwyLjljMS45LTEuNSwzLjYtMy4xLDQuOC01LjJDNDAuNiwzMi40LDQxLjIsMzAuNyw0MS44LDI5eiIvPiYjeGE7PC9zdmc+;labelBackgroundColor=#ffffff;fontSize=20;strokeWidth=4;fontStyle=1" parent="1" vertex="1">
          <mxGeometry x="490.5" y="360" width="60" height="60" as="geometry" />
        </mxCell>
        <mxCell id="KTYIS-nlbDNS5z_1esKd-5" value="" style="edgeStyle=orthogonalEdgeStyle;rounded=0;orthogonalLoop=1;jettySize=auto;html=1;" edge="1" parent="1" source="KTYIS-nlbDNS5z_1esKd-1" target="KTYIS-nlbDNS5z_1esKd-3">
          <mxGeometry relative="1" as="geometry" />
        </mxCell>
        <mxCell id="KTYIS-nlbDNS5z_1esKd-15" value="" style="edgeStyle=orthogonalEdgeStyle;rounded=0;orthogonalLoop=1;jettySize=auto;html=1;fontSize=20;" edge="1" parent="1" source="KTYIS-nlbDNS5z_1esKd-1" target="KTYIS-nlbDNS5z_1esKd-14">
          <mxGeometry relative="1" as="geometry" />
        </mxCell>
        <mxCell id="KTYIS-nlbDNS5z_1esKd-23" value="" style="edgeStyle=none;rounded=0;orthogonalLoop=1;jettySize=auto;html=1;fontSize=15;" edge="1" parent="1" source="KTYIS-nlbDNS5z_1esKd-1" target="KTYIS-nlbDNS5z_1esKd-22">
          <mxGeometry relative="1" as="geometry" />
        </mxCell>
        <mxCell id="KTYIS-nlbDNS5z_1esKd-1" value="" style="image;html=1;image=img/lib/clip_art/networking/Router_Icon_128x128.png" vertex="1" parent="1">
          <mxGeometry x="494" y="540" width="53" height="50" as="geometry" />
        </mxCell>
        <mxCell id="KTYIS-nlbDNS5z_1esKd-2" value="&lt;b&gt;&lt;font style=&quot;font-size: 15px&quot;&gt;Router Utama&lt;/font&gt;&lt;/b&gt;" style="text;html=1;align=center;verticalAlign=middle;resizable=0;points=[];autosize=1;strokeColor=none;fillColor=none;" vertex="1" parent="1">
          <mxGeometry x="460" y="590" width="110" height="20" as="geometry" />
        </mxCell>
        <mxCell id="KTYIS-nlbDNS5z_1esKd-3" value="" style="image;html=1;image=img/lib/clip_art/computers/Server_Rack_128x128.png" vertex="1" parent="1">
          <mxGeometry x="350" y="600" width="80" height="80" as="geometry" />
        </mxCell>
        <mxCell id="KTYIS-nlbDNS5z_1esKd-7" value="&lt;b&gt;&lt;font style=&quot;font-size: 20px&quot;&gt;Server&lt;/font&gt;&lt;/b&gt;" style="text;html=1;align=center;verticalAlign=middle;resizable=0;points=[];autosize=1;strokeColor=none;fillColor=none;" vertex="1" parent="1">
          <mxGeometry x="350" y="680" width="80" height="20" as="geometry" />
        </mxCell>
        <mxCell id="KTYIS-nlbDNS5z_1esKd-21" value="" style="edgeStyle=orthogonalEdgeStyle;rounded=0;orthogonalLoop=1;jettySize=auto;html=1;fontSize=15;exitX=0.505;exitY=1.108;exitDx=0;exitDy=0;exitPerimeter=0;" edge="1" parent="1" source="KTYIS-nlbDNS5z_1esKd-19" target="KTYIS-nlbDNS5z_1esKd-20">
          <mxGeometry relative="1" as="geometry">
            <mxPoint x="637" y="700" as="sourcePoint" />
            <Array as="points">
              <mxPoint x="637" y="722" />
              <mxPoint x="570" y="722" />
            </Array>
          </mxGeometry>
        </mxCell>
        <mxCell id="KTYIS-nlbDNS5z_1esKd-30" style="edgeStyle=orthogonalEdgeStyle;rounded=0;orthogonalLoop=1;jettySize=auto;html=1;fontSize=15;" edge="1" parent="1" source="KTYIS-nlbDNS5z_1esKd-14" target="KTYIS-nlbDNS5z_1esKd-26">
          <mxGeometry relative="1" as="geometry" />
        </mxCell>
        <mxCell id="KTYIS-nlbDNS5z_1esKd-31" style="edgeStyle=orthogonalEdgeStyle;rounded=0;orthogonalLoop=1;jettySize=auto;html=1;entryX=0.5;entryY=0.07;entryDx=0;entryDy=0;entryPerimeter=0;fontSize=15;" edge="1" parent="1" source="KTYIS-nlbDNS5z_1esKd-14" target="KTYIS-nlbDNS5z_1esKd-28">
          <mxGeometry relative="1" as="geometry">
            <Array as="points">
              <mxPoint x="710" y="635" />
              <mxPoint x="710" y="730" />
              <mxPoint x="825" y="730" />
            </Array>
          </mxGeometry>
        </mxCell>
        <mxCell id="KTYIS-nlbDNS5z_1esKd-33" style="edgeStyle=orthogonalEdgeStyle;rounded=0;orthogonalLoop=1;jettySize=auto;html=1;entryX=0.5;entryY=0.07;entryDx=0;entryDy=0;entryPerimeter=0;fontSize=15;" edge="1" parent="1" source="KTYIS-nlbDNS5z_1esKd-14" target="KTYIS-nlbDNS5z_1esKd-27">
          <mxGeometry relative="1" as="geometry">
            <Array as="points">
              <mxPoint x="710" y="635" />
              <mxPoint x="710" y="730" />
              <mxPoint x="945" y="730" />
            </Array>
          </mxGeometry>
        </mxCell>
        <mxCell id="KTYIS-nlbDNS5z_1esKd-14" value="" style="image;html=1;image=img/lib/clip_art/networking/Router_Icon_128x128.png" vertex="1" parent="1">
          <mxGeometry x="610" y="610" width="53" height="50" as="geometry" />
        </mxCell>
        <mxCell id="KTYIS-nlbDNS5z_1esKd-19" value="&lt;b&gt;&lt;font style=&quot;font-size: 15px&quot;&gt;Router Ruang 1&lt;/font&gt;&lt;/b&gt;" style="text;html=1;align=center;verticalAlign=middle;resizable=0;points=[];autosize=1;strokeColor=none;fillColor=none;" vertex="1" parent="1">
          <mxGeometry x="571.5" y="660" width="130" height="20" as="geometry" />
        </mxCell>
        <mxCell id="KTYIS-nlbDNS5z_1esKd-56" style="edgeStyle=orthogonalEdgeStyle;rounded=0;orthogonalLoop=1;jettySize=auto;html=1;entryX=0.5;entryY=0;entryDx=0;entryDy=0;fontSize=15;" edge="1" parent="1" source="KTYIS-nlbDNS5z_1esKd-20" target="KTYIS-nlbDNS5z_1esKd-50">
          <mxGeometry relative="1" as="geometry" />
        </mxCell>
        <mxCell id="KTYIS-nlbDNS5z_1esKd-57" style="edgeStyle=orthogonalEdgeStyle;rounded=0;orthogonalLoop=1;jettySize=auto;html=1;fontSize=15;" edge="1" parent="1" source="KTYIS-nlbDNS5z_1esKd-20" target="KTYIS-nlbDNS5z_1esKd-49">
          <mxGeometry relative="1" as="geometry">
            <Array as="points">
              <mxPoint x="560" y="894" />
            </Array>
          </mxGeometry>
        </mxCell>
        <mxCell id="KTYIS-nlbDNS5z_1esKd-20" value="" style="image;html=1;image=img/lib/clip_art/networking/Wireless_Router_128x128.png;fontSize=15;strokeWidth=4;" vertex="1" parent="1">
          <mxGeometry x="540" y="747" width="60" height="73" as="geometry" />
        </mxCell>
        <mxCell id="KTYIS-nlbDNS5z_1esKd-37" value="" style="edgeStyle=orthogonalEdgeStyle;rounded=0;orthogonalLoop=1;jettySize=auto;html=1;fontSize=15;" edge="1" parent="1" source="KTYIS-nlbDNS5z_1esKd-22" target="KTYIS-nlbDNS5z_1esKd-34">
          <mxGeometry relative="1" as="geometry" />
        </mxCell>
        <mxCell id="KTYIS-nlbDNS5z_1esKd-38" style="edgeStyle=orthogonalEdgeStyle;rounded=0;orthogonalLoop=1;jettySize=auto;html=1;fontSize=15;" edge="1" parent="1" source="KTYIS-nlbDNS5z_1esKd-22" target="KTYIS-nlbDNS5z_1esKd-36">
          <mxGeometry relative="1" as="geometry">
            <Array as="points">
              <mxPoint x="940" y="565" />
              <mxPoint x="940" y="640" />
            </Array>
          </mxGeometry>
        </mxCell>
        <mxCell id="KTYIS-nlbDNS5z_1esKd-39" style="edgeStyle=orthogonalEdgeStyle;rounded=0;orthogonalLoop=1;jettySize=auto;html=1;fontSize=15;" edge="1" parent="1" source="KTYIS-nlbDNS5z_1esKd-22" target="KTYIS-nlbDNS5z_1esKd-35">
          <mxGeometry relative="1" as="geometry">
            <Array as="points">
              <mxPoint x="847" y="530" />
            </Array>
          </mxGeometry>
        </mxCell>
        <mxCell id="KTYIS-nlbDNS5z_1esKd-43" style="edgeStyle=orthogonalEdgeStyle;rounded=0;orthogonalLoop=1;jettySize=auto;html=1;fontSize=15;" edge="1" parent="1" source="KTYIS-nlbDNS5z_1esKd-22" target="KTYIS-nlbDNS5z_1esKd-41">
          <mxGeometry relative="1" as="geometry">
            <Array as="points">
              <mxPoint x="850" y="456" />
            </Array>
          </mxGeometry>
        </mxCell>
        <mxCell id="KTYIS-nlbDNS5z_1esKd-22" value="" style="image;html=1;image=img/lib/clip_art/networking/Router_Icon_128x128.png" vertex="1" parent="1">
          <mxGeometry x="820" y="540" width="53" height="50" as="geometry" />
        </mxCell>
        <mxCell id="KTYIS-nlbDNS5z_1esKd-24" value="&lt;b&gt;&lt;font style=&quot;font-size: 15px&quot;&gt;Router Ruang 2&lt;/font&gt;&lt;/b&gt;" style="text;html=1;align=center;verticalAlign=middle;resizable=0;points=[];autosize=1;strokeColor=none;fillColor=none;" vertex="1" parent="1">
          <mxGeometry x="805" y="590" width="130" height="20" as="geometry" />
        </mxCell>
        <mxCell id="KTYIS-nlbDNS5z_1esKd-25" value="&lt;b&gt;Acces Point&lt;/b&gt;" style="text;html=1;align=center;verticalAlign=middle;resizable=0;points=[];autosize=1;strokeColor=none;fillColor=none;fontSize=15;" vertex="1" parent="1">
          <mxGeometry x="430" y="790" width="100" height="20" as="geometry" />
        </mxCell>
        <mxCell id="KTYIS-nlbDNS5z_1esKd-26" value="" style="fontColor=#0066CC;verticalAlign=top;verticalLabelPosition=bottom;labelPosition=center;align=center;html=1;outlineConnect=0;fillColor=#CCCCCC;strokeColor=#6881B3;gradientColor=none;gradientDirection=north;strokeWidth=2;shape=mxgraph.networks.pc;fontSize=15;" vertex="1" parent="1">
          <mxGeometry x="680" y="760" width="70" height="40" as="geometry" />
        </mxCell>
        <mxCell id="KTYIS-nlbDNS5z_1esKd-27" value="" style="fontColor=#0066CC;verticalAlign=top;verticalLabelPosition=bottom;labelPosition=center;align=center;html=1;outlineConnect=0;fillColor=#CCCCCC;strokeColor=#6881B3;gradientColor=none;gradientDirection=north;strokeWidth=2;shape=mxgraph.networks.pc;fontSize=15;" vertex="1" parent="1">
          <mxGeometry x="910" y="760" width="70" height="40" as="geometry" />
        </mxCell>
        <mxCell id="KTYIS-nlbDNS5z_1esKd-28" value="" style="fontColor=#0066CC;verticalAlign=top;verticalLabelPosition=bottom;labelPosition=center;align=center;html=1;outlineConnect=0;fillColor=#CCCCCC;strokeColor=#6881B3;gradientColor=none;gradientDirection=north;strokeWidth=2;shape=mxgraph.networks.pc;fontSize=15;" vertex="1" parent="1">
          <mxGeometry x="790" y="760" width="70" height="40" as="geometry" />
        </mxCell>
        <mxCell id="KTYIS-nlbDNS5z_1esKd-34" value="" style="fontColor=#0066CC;verticalAlign=top;verticalLabelPosition=bottom;labelPosition=center;align=center;html=1;outlineConnect=0;fillColor=#CCCCCC;strokeColor=#6881B3;gradientColor=none;gradientDirection=north;strokeWidth=2;shape=mxgraph.networks.pc;fontSize=15;" vertex="1" parent="1">
          <mxGeometry x="1050" y="570" width="70" height="40" as="geometry" />
        </mxCell>
        <mxCell id="KTYIS-nlbDNS5z_1esKd-35" value="" style="fontColor=#0066CC;verticalAlign=top;verticalLabelPosition=bottom;labelPosition=center;align=center;html=1;outlineConnect=0;fillColor=#CCCCCC;strokeColor=#6881B3;gradientColor=none;gradientDirection=north;strokeWidth=2;shape=mxgraph.networks.pc;fontSize=15;" vertex="1" parent="1">
          <mxGeometry x="1050" y="490" width="70" height="40" as="geometry" />
        </mxCell>
        <mxCell id="KTYIS-nlbDNS5z_1esKd-36" value="" style="fontColor=#0066CC;verticalAlign=top;verticalLabelPosition=bottom;labelPosition=center;align=center;html=1;outlineConnect=0;fillColor=#CCCCCC;strokeColor=#6881B3;gradientColor=none;gradientDirection=north;strokeWidth=2;shape=mxgraph.networks.pc;fontSize=15;" vertex="1" parent="1">
          <mxGeometry x="1050" y="640" width="70" height="40" as="geometry" />
        </mxCell>
        <mxCell id="KTYIS-nlbDNS5z_1esKd-47" style="edgeStyle=orthogonalEdgeStyle;rounded=0;orthogonalLoop=1;jettySize=auto;html=1;fontSize=15;" edge="1" parent="1" source="KTYIS-nlbDNS5z_1esKd-41" target="KTYIS-nlbDNS5z_1esKd-46">
          <mxGeometry relative="1" as="geometry" />
        </mxCell>
        <mxCell id="KTYIS-nlbDNS5z_1esKd-48" style="edgeStyle=orthogonalEdgeStyle;rounded=0;orthogonalLoop=1;jettySize=auto;html=1;entryX=0.25;entryY=0;entryDx=0;entryDy=0;fontSize=15;" edge="1" parent="1" source="KTYIS-nlbDNS5z_1esKd-41" target="KTYIS-nlbDNS5z_1esKd-45">
          <mxGeometry relative="1" as="geometry" />
        </mxCell>
        <mxCell id="KTYIS-nlbDNS5z_1esKd-41" value="" style="image;html=1;image=img/lib/clip_art/networking/Wireless_Router_128x128.png;fontSize=15;strokeWidth=4;" vertex="1" parent="1">
          <mxGeometry x="900" y="420" width="60" height="73" as="geometry" />
        </mxCell>
        <mxCell id="KTYIS-nlbDNS5z_1esKd-45" value="" style="shape=image;html=1;verticalAlign=top;verticalLabelPosition=bottom;labelBackgroundColor=#ffffff;imageAspect=0;aspect=fixed;image=https://cdn4.iconfinder.com/data/icons/ionicons/512/icon-iphone-128.png;fontSize=15;strokeWidth=4;" vertex="1" parent="1">
          <mxGeometry x="1002" y="360" width="48" height="48" as="geometry" />
        </mxCell>
        <mxCell id="KTYIS-nlbDNS5z_1esKd-46" value="" style="shape=image;html=1;verticalAlign=top;verticalLabelPosition=bottom;labelBackgroundColor=#ffffff;imageAspect=0;aspect=fixed;image=https://cdn4.iconfinder.com/data/icons/ionicons/512/icon-iphone-128.png;fontSize=15;strokeWidth=4;" vertex="1" parent="1">
          <mxGeometry x="1002" y="432.5" width="48" height="48" as="geometry" />
        </mxCell>
        <mxCell id="KTYIS-nlbDNS5z_1esKd-49" value="" style="shape=image;html=1;verticalAlign=top;verticalLabelPosition=bottom;labelBackgroundColor=#ffffff;imageAspect=0;aspect=fixed;image=https://cdn4.iconfinder.com/data/icons/ionicons/512/icon-iphone-128.png;fontSize=15;strokeWidth=4;" vertex="1" parent="1">
          <mxGeometry x="490.5" y="870" width="48" height="48" as="geometry" />
        </mxCell>
        <mxCell id="KTYIS-nlbDNS5z_1esKd-50" value="" style="shape=image;html=1;verticalAlign=top;verticalLabelPosition=bottom;labelBackgroundColor=#ffffff;imageAspect=0;aspect=fixed;image=https://cdn4.iconfinder.com/data/icons/ionicons/512/icon-iphone-128.png;fontSize=15;strokeWidth=4;" vertex="1" parent="1">
          <mxGeometry x="584" y="880" width="48" height="48" as="geometry" />
        </mxCell>
        <mxCell id="KTYIS-nlbDNS5z_1esKd-51" value="&lt;b&gt;&lt;font style=&quot;font-size: 15px&quot;&gt;Ip DHCP&lt;/font&gt;&lt;/b&gt;" style="text;html=1;align=center;verticalAlign=middle;resizable=0;points=[];autosize=1;strokeColor=none;fillColor=none;" vertex="1" parent="1">
          <mxGeometry x="474.5" y="610" width="80" height="20" as="geometry" />
        </mxCell>
        <mxCell id="KTYIS-nlbDNS5z_1esKd-52" value="&lt;b&gt;&lt;font style=&quot;font-size: 15px&quot;&gt;192.168.1.1&lt;/font&gt;&lt;/b&gt;" style="text;html=1;align=center;verticalAlign=middle;resizable=0;points=[];autosize=1;strokeColor=none;fillColor=none;" vertex="1" parent="1">
          <mxGeometry x="345" y="710" width="90" height="20" as="geometry" />
        </mxCell>
        <mxCell id="KTYIS-nlbDNS5z_1esKd-53" value="&lt;b&gt;&lt;font style=&quot;font-size: 15px&quot;&gt;192.168.1.2&lt;/font&gt;&lt;/b&gt;" style="text;html=1;align=center;verticalAlign=middle;resizable=0;points=[];autosize=1;strokeColor=none;fillColor=none;" vertex="1" parent="1">
          <mxGeometry x="547" y="680" width="90" height="20" as="geometry" />
        </mxCell>
        <mxCell id="KTYIS-nlbDNS5z_1esKd-54" value="&lt;b&gt;&lt;font style=&quot;font-size: 15px&quot;&gt;192.168.1.3&lt;/font&gt;&lt;/b&gt;" style="text;html=1;align=center;verticalAlign=middle;resizable=0;points=[];autosize=1;strokeColor=none;fillColor=none;" vertex="1" parent="1">
          <mxGeometry x="820" y="610" width="90" height="20" as="geometry" />
        </mxCell>
        <mxCell id="KTYIS-nlbDNS5z_1esKd-55" value="&lt;b&gt;&lt;font style=&quot;font-size: 15px&quot;&gt;192.168.2.1&lt;/font&gt;&lt;/b&gt;" style="text;html=1;align=center;verticalAlign=middle;resizable=0;points=[];autosize=1;strokeColor=none;fillColor=none;" vertex="1" parent="1">
          <mxGeometry x="435" y="820" width="90" height="20" as="geometry" />
        </mxCell>
        <mxCell id="KTYIS-nlbDNS5z_1esKd-58" value="&lt;b&gt;&lt;font style=&quot;font-size: 15px&quot;&gt;192.168.2.2&lt;/font&gt;&lt;/b&gt;" style="text;html=1;align=center;verticalAlign=middle;resizable=0;points=[];autosize=1;strokeColor=none;fillColor=none;" vertex="1" parent="1">
          <mxGeometry x="457" y="918" width="90" height="20" as="geometry" />
        </mxCell>
        <mxCell id="KTYIS-nlbDNS5z_1esKd-59" value="&lt;b&gt;&lt;font style=&quot;font-size: 15px&quot;&gt;192.168.2.3&lt;/font&gt;&lt;/b&gt;" style="text;html=1;align=center;verticalAlign=middle;resizable=0;points=[];autosize=1;strokeColor=none;fillColor=none;" vertex="1" parent="1">
          <mxGeometry x="573" y="938" width="90" height="20" as="geometry" />
        </mxCell>
        <mxCell id="KTYIS-nlbDNS5z_1esKd-60" value="&lt;b&gt;&lt;font style=&quot;font-size: 15px&quot;&gt;192.168.1.4&lt;/font&gt;&lt;/b&gt;" style="text;html=1;align=center;verticalAlign=middle;resizable=0;points=[];autosize=1;strokeColor=none;fillColor=none;" vertex="1" parent="1">
          <mxGeometry x="880" y="493" width="90" height="20" as="geometry" />
        </mxCell>
        <mxCell id="KTYIS-nlbDNS5z_1esKd-61" value="&lt;b&gt;&lt;font style=&quot;font-size: 15px&quot;&gt;192.168.2.4&lt;/font&gt;&lt;/b&gt;" style="text;html=1;align=center;verticalAlign=middle;resizable=0;points=[];autosize=1;strokeColor=none;fillColor=none;" vertex="1" parent="1">
          <mxGeometry x="670" y="820" width="90" height="20" as="geometry" />
        </mxCell>
        <mxCell id="KTYIS-nlbDNS5z_1esKd-62" value="&lt;b&gt;&lt;font style=&quot;font-size: 15px&quot;&gt;192.168.2.5&lt;/font&gt;&lt;/b&gt;" style="text;html=1;align=center;verticalAlign=middle;resizable=0;points=[];autosize=1;strokeColor=none;fillColor=none;" vertex="1" parent="1">
          <mxGeometry x="780" y="820" width="90" height="20" as="geometry" />
        </mxCell>
        <mxCell id="KTYIS-nlbDNS5z_1esKd-63" value="&lt;b&gt;&lt;font style=&quot;font-size: 15px&quot;&gt;192.168.2.6&lt;/font&gt;&lt;/b&gt;" style="text;html=1;align=center;verticalAlign=middle;resizable=0;points=[];autosize=1;strokeColor=none;fillColor=none;" vertex="1" parent="1">
          <mxGeometry x="900" y="820" width="90" height="20" as="geometry" />
        </mxCell>
        <mxCell id="KTYIS-nlbDNS5z_1esKd-64" value="&lt;b&gt;&lt;font style=&quot;font-size: 15px&quot;&gt;192.168.2.7&lt;/font&gt;&lt;/b&gt;" style="text;html=1;align=center;verticalAlign=middle;resizable=0;points=[];autosize=1;strokeColor=none;fillColor=none;" vertex="1" parent="1">
          <mxGeometry x="1040" y="700" width="90" height="20" as="geometry" />
        </mxCell>
        <mxCell id="KTYIS-nlbDNS5z_1esKd-65" value="&lt;b&gt;&lt;font style=&quot;font-size: 15px&quot;&gt;192.168.2.8&lt;/font&gt;&lt;/b&gt;" style="text;html=1;align=center;verticalAlign=middle;resizable=0;points=[];autosize=1;strokeColor=none;fillColor=none;" vertex="1" parent="1">
          <mxGeometry x="1140" y="590" width="90" height="20" as="geometry" />
        </mxCell>
        <mxCell id="KTYIS-nlbDNS5z_1esKd-66" value="&lt;b&gt;&lt;font style=&quot;font-size: 15px&quot;&gt;192.168.2.8&lt;/font&gt;&lt;/b&gt;" style="text;html=1;align=center;verticalAlign=middle;resizable=0;points=[];autosize=1;strokeColor=none;fillColor=none;" vertex="1" parent="1">
          <mxGeometry x="1140" y="500" width="90" height="20" as="geometry" />
        </mxCell>
        <mxCell id="KTYIS-nlbDNS5z_1esKd-69" value="&lt;b&gt;&lt;font style=&quot;font-size: 15px&quot;&gt;192.168.2.9&lt;/font&gt;&lt;/b&gt;" style="text;html=1;align=center;verticalAlign=middle;resizable=0;points=[];autosize=1;strokeColor=none;fillColor=none;" vertex="1" parent="1">
          <mxGeometry x="1050" y="374" width="90" height="20" as="geometry" />
        </mxCell>
        <mxCell id="KTYIS-nlbDNS5z_1esKd-70" value="&lt;b&gt;&lt;font style=&quot;font-size: 15px&quot;&gt;192.168.2.10&lt;/font&gt;&lt;/b&gt;" style="text;html=1;align=center;verticalAlign=middle;resizable=0;points=[];autosize=1;strokeColor=none;fillColor=none;" vertex="1" parent="1">
          <mxGeometry x="1045" y="446.5" width="100" height="20" as="geometry" />
        </mxCell>
        <mxCell id="KTYIS-nlbDNS5z_1esKd-71" value="&lt;font style=&quot;font-size: 26px&quot;&gt;&lt;b&gt;Lukman Prasetyo&lt;/b&gt;&lt;/font&gt;" style="text;html=1;align=center;verticalAlign=middle;resizable=0;points=[];autosize=1;strokeColor=none;fillColor=none;fontSize=15;" vertex="1" parent="1">
          <mxGeometry x="420" y="260" width="230" height="30" as="geometry" />
        </mxCell>
      </root>
    </mxGraphModel>
  </diagram>
</mxfile>
